<svg xmlns="http://www.w3.org/2000/svg" xmlns:xlink="http://www.w3.org/1999/xlink" width="1920" zoomAndPan="magnify" viewBox="0 0 1440 809.999993" height="1080" preserveAspectRatio="xMidYMid meet" version="1.0"><defs><g/><clipPath id="3526febd65"><path d="M 0 0 L 483 0 L 483 338 L 0 338 Z M 0 0 " clip-rule="nonzero"/></clipPath><clipPath id="ea4a3f55d5"><path d="M 652.773438 17.929688 L 61.257812 504.253906 L -217.886719 164.726562 L 373.628906 -321.597656 Z M 652.773438 17.929688 " clip-rule="nonzero"/></clipPath><clipPath id="5689f0ce73"><path d="M -217.59375 164.488281 C -65.546875 349.421875 196.148438 393.351562 357.164062 260.96875 C 518.179688 128.589844 525.675781 -136.660156 373.628906 -321.597656 Z M -217.59375 164.488281 " clip-rule="nonzero"/></clipPath><clipPath id="cb53cfdaa0"><path d="M 0 0 L 483 0 L 483 338 L 0 338 Z M 0 0 " clip-rule="nonzero"/></clipPath><clipPath id="cbd881f10d"><path d="M 652.773438 17.929688 L 61.257812 504.253906 L -217.886719 164.726562 L 373.628906 -321.597656 Z M 652.773438 17.929688 " clip-rule="nonzero"/></clipPath><clipPath id="8a2fd5c570"><path d="M -217.59375 164.488281 C -65.546875 349.421875 196.148438 393.351562 357.164062 260.96875 C 518.179688 128.589844 525.675781 -136.660156 373.628906 -321.597656 Z M -217.59375 164.488281 " clip-rule="nonzero"/></clipPath><clipPath id="8759093f1d"><rect x="0" width="483" y="0" height="338"/></clipPath></defs><rect x="-144" width="1728" fill="#ffffff" y="-80.999999" height="971.999992" fill-opacity="1"/><rect x="-144" width="1728" fill="#ffffff" y="-80.999999" height="971.999992" fill-opacity="1"/><g clip-path="url(#3526febd65)"><g clip-path="url(#ea4a3f55d5)"><g clip-path="url(#5689f0ce73)"><g transform="matrix(1, 0, 0, 1, 0, 0.000000000000039746)"><g clip-path="url(#8759093f1d)"><g clip-path="url(#cb53cfdaa0)"><g clip-path="url(#cbd881f10d)"><g clip-path="url(#8a2fd5c570)"><path fill="#1eba82" d="M 652.773438 17.929688 L 61.257812 504.253906 L -217.886719 164.726562 L 373.628906 -321.597656 Z M 652.773438 17.929688 " fill-opacity="1" fill-rule="nonzero"/></g></g></g></g></g></g></g></g><g fill="#ffffff" fill-opacity="1"><g transform="translate(64.125925, 97.812817)"><g><path d="M 0.234375 -31.484375 L 7.375 -31.484375 L 14.234375 -12.734375 L 21.203125 -31.484375 L 28.25 -31.484375 L 16.03125 0.5625 L 12.40625 0.5625 Z M 0.234375 -31.484375 "/></g></g></g><g fill="#ffffff" fill-opacity="1"><g transform="translate(92.60315, 97.812817)"><g><path d="M 3.53125 -31.484375 L 21.53125 -31.484375 L 21.53125 -25.046875 L 10.390625 -25.046875 L 10.390625 -19.265625 L 18.515625 -19.265625 L 18.515625 -12.828125 L 10.390625 -12.828125 L 10.390625 -6.4375 L 21.765625 -6.4375 L 21.765625 0 L 3.53125 0 Z M 3.53125 -31.484375 "/></g></g></g><g fill="#ffffff" fill-opacity="1"><g transform="translate(116.710105, 97.812817)"><g><path d="M 3.53125 -31.484375 L 13.390625 -31.484375 C 15.023438 -31.484375 16.535156 -31.234375 17.921875 -30.734375 C 19.316406 -30.234375 20.515625 -29.53125 21.515625 -28.625 C 22.523438 -27.71875 23.3125 -26.632812 23.875 -25.375 C 24.4375 -24.125 24.71875 -22.765625 24.71875 -21.296875 C 24.71875 -19.410156 24.265625 -17.707031 23.359375 -16.1875 C 22.453125 -14.664062 21.195312 -13.484375 19.59375 -12.640625 L 26.984375 0 L 18.984375 0 L 12.875 -11.046875 L 10.390625 -11.046875 L 10.390625 0 L 3.53125 0 Z M 13.0625 -17.109375 C 14.539062 -17.109375 15.707031 -17.472656 16.5625 -18.203125 C 17.425781 -18.941406 17.859375 -19.957031 17.859375 -21.25 C 17.859375 -22.53125 17.421875 -23.484375 16.546875 -24.109375 C 15.671875 -24.734375 14.507812 -25.046875 13.0625 -25.046875 L 10.390625 -25.046875 L 10.390625 -17.109375 Z M 13.0625 -17.109375 "/></g></g></g><g fill="#ffffff" fill-opacity="1"><g transform="translate(144.388464, 97.812817)"><g><path d="M 3.53125 -31.484375 L 15.984375 -31.484375 C 18.328125 -31.484375 20.492188 -31.082031 22.484375 -30.28125 C 24.472656 -29.488281 26.195312 -28.394531 27.65625 -27 C 29.113281 -25.601562 30.257812 -23.941406 31.09375 -22.015625 C 31.925781 -20.085938 32.34375 -18 32.34375 -15.75 C 32.34375 -13.488281 31.925781 -11.398438 31.09375 -9.484375 C 30.257812 -7.578125 29.113281 -5.914062 27.65625 -4.5 C 26.195312 -3.09375 24.472656 -1.988281 22.484375 -1.1875 C 20.492188 -0.394531 18.328125 0 15.984375 0 L 3.53125 0 Z M 16.03125 -6.4375 C 17.34375 -6.4375 18.546875 -6.671875 19.640625 -7.140625 C 20.742188 -7.609375 21.703125 -8.257812 22.515625 -9.09375 C 23.328125 -9.925781 23.957031 -10.90625 24.40625 -12.03125 C 24.863281 -13.15625 25.09375 -14.394531 25.09375 -15.75 C 25.09375 -17.09375 24.863281 -18.328125 24.40625 -19.453125 C 23.957031 -20.585938 23.328125 -21.566406 22.515625 -22.390625 C 21.703125 -23.222656 20.742188 -23.875 19.640625 -24.34375 C 18.546875 -24.8125 17.34375 -25.046875 16.03125 -25.046875 L 10.390625 -25.046875 L 10.390625 -6.4375 Z M 16.03125 -6.4375 "/></g></g></g><g fill="#ffffff" fill-opacity="1"><g transform="translate(176.953907, 97.812817)"><g><path d="M 12.875 -32.046875 L 17.25 -32.046875 L 29.65625 0 L 22.421875 0 L 20.484375 -5.3125 L 9.640625 -5.3125 L 7.75 0 L 0.46875 0 Z M 18.375 -11.234375 L 15.09375 -20.484375 L 11.75 -11.234375 Z M 18.375 -11.234375 "/></g></g></g><g fill="#ffffff" fill-opacity="1"><g transform="translate(207.075854, 97.812817)"><g><path d="M 10.015625 -18.75 L 10.015625 0 L 3.53125 0 L 3.53125 -32.046875 L 7.09375 -32.046875 L 24.671875 -12.734375 L 24.671875 -31.484375 L 31.15625 -31.484375 L 31.15625 0.5625 L 27.59375 0.5625 Z M 10.015625 -18.75 "/></g></g></g><g fill="#ffffff" fill-opacity="1"><g transform="translate(241.75604, 97.812817)"><g><path d="M 12.875 -32.046875 L 17.25 -32.046875 L 29.65625 0 L 22.421875 0 L 20.484375 -5.3125 L 9.640625 -5.3125 L 7.75 0 L 0.46875 0 Z M 18.375 -11.234375 L 15.09375 -20.484375 L 11.75 -11.234375 Z M 18.375 -11.234375 "/></g></g></g><g fill="#ffffff" fill-opacity="1"><g transform="translate(271.877975, 97.812817)"><g/></g></g><g fill="#ffffff" fill-opacity="1"><g transform="translate(282.216246, 97.812817)"><g><path d="M 3.53125 -32.046875 L 7.046875 -32.046875 L 20.015625 -15 L 32.859375 -32.046875 L 36.375 -32.046875 L 36.375 0 L 29.515625 0 L 29.515625 -17.53125 L 21.296875 -6.671875 L 18.5625 -6.671875 L 10.390625 -17.484375 L 10.390625 0 L 3.53125 0 Z M 3.53125 -32.046875 "/></g></g></g><g fill="#ffffff" fill-opacity="1"><g transform="translate(322.112569, 97.812817)"><g><path d="M 12.875 -32.046875 L 17.25 -32.046875 L 29.65625 0 L 22.421875 0 L 20.484375 -5.3125 L 9.640625 -5.3125 L 7.75 0 L 0.46875 0 Z M 18.375 -11.234375 L 15.09375 -20.484375 L 11.75 -11.234375 Z M 18.375 -11.234375 "/></g></g></g><g fill="#ffffff" fill-opacity="1"><g transform="translate(352.234516, 97.812817)"><g><path d="M 3.53125 -31.484375 L 13.390625 -31.484375 C 15.023438 -31.484375 16.535156 -31.234375 17.921875 -30.734375 C 19.316406 -30.234375 20.515625 -29.53125 21.515625 -28.625 C 22.523438 -27.71875 23.3125 -26.632812 23.875 -25.375 C 24.4375 -24.125 24.71875 -22.765625 24.71875 -21.296875 C 24.71875 -19.410156 24.265625 -17.707031 23.359375 -16.1875 C 22.453125 -14.664062 21.195312 -13.484375 19.59375 -12.640625 L 26.984375 0 L 18.984375 0 L 12.875 -11.046875 L 10.390625 -11.046875 L 10.390625 0 L 3.53125 0 Z M 13.0625 -17.109375 C 14.539062 -17.109375 15.707031 -17.472656 16.5625 -18.203125 C 17.425781 -18.941406 17.859375 -19.957031 17.859375 -21.25 C 17.859375 -22.53125 17.421875 -23.484375 16.546875 -24.109375 C 15.671875 -24.734375 14.507812 -25.046875 13.0625 -25.046875 L 10.390625 -25.046875 L 10.390625 -17.109375 Z M 13.0625 -17.109375 "/></g></g></g><g fill="#ffffff" fill-opacity="1"><g transform="translate(377.093165, 97.812817)"><g><path d="M 10.109375 -25.046875 L 0.9375 -25.046875 L 0.9375 -31.484375 L 26.125 -31.484375 L 26.125 -25.046875 L 16.96875 -25.046875 L 16.96875 0 L 10.109375 0 Z M 10.109375 -25.046875 "/></g></g></g><g fill="#000000" fill-opacity="1"><g transform="translate(39.832958, 131.312898)"><g><path d="M 5.765625 0.234375 C 4.722656 0.234375 3.757812 -0.015625 2.875 -0.515625 C 2 -1.015625 1.269531 -1.734375 0.6875 -2.671875 L 1.9375 -3.6875 C 3.007812 -2.050781 4.296875 -1.234375 5.796875 -1.234375 C 6.703125 -1.234375 7.429688 -1.476562 7.984375 -1.96875 C 8.535156 -2.46875 8.8125 -3.125 8.8125 -3.9375 C 8.8125 -4.632812 8.5625 -5.238281 8.0625 -5.75 C 7.5625 -6.257812 6.757812 -6.734375 5.65625 -7.171875 C 4.257812 -7.710938 3.25 -8.34375 2.625 -9.0625 C 2.007812 -9.78125 1.703125 -10.640625 1.703125 -11.640625 C 1.703125 -12.234375 1.800781 -12.773438 2 -13.265625 C 2.195312 -13.753906 2.476562 -14.175781 2.84375 -14.53125 C 3.21875 -14.882812 3.660156 -15.15625 4.171875 -15.34375 C 4.679688 -15.539062 5.253906 -15.640625 5.890625 -15.640625 C 7.648438 -15.640625 9.109375 -14.859375 10.265625 -13.296875 L 9.015625 -12.28125 C 8.554688 -12.925781 8.066406 -13.394531 7.546875 -13.6875 C 7.035156 -13.988281 6.472656 -14.140625 5.859375 -14.140625 C 5.078125 -14.140625 4.457031 -13.925781 4 -13.5 C 3.539062 -13.070312 3.3125 -12.5 3.3125 -11.78125 C 3.3125 -11.082031 3.546875 -10.492188 4.015625 -10.015625 C 4.484375 -9.535156 5.257812 -9.078125 6.34375 -8.640625 C 7.738281 -8.109375 8.765625 -7.46875 9.421875 -6.71875 C 10.085938 -5.976562 10.421875 -5.097656 10.421875 -4.078125 C 10.421875 -3.441406 10.304688 -2.859375 10.078125 -2.328125 C 9.847656 -1.804688 9.523438 -1.351562 9.109375 -0.96875 C 8.691406 -0.582031 8.195312 -0.285156 7.625 -0.078125 C 7.0625 0.128906 6.441406 0.234375 5.765625 0.234375 Z M 5.765625 0.234375 "/></g></g></g><g fill="#000000" fill-opacity="1"><g transform="translate(51.398059, 131.312898)"><g><path d="M 1.609375 -10.578125 L 3.109375 -10.578125 L 3.109375 -8.953125 C 3.953125 -10.191406 5.046875 -10.8125 6.390625 -10.8125 C 7.171875 -10.8125 7.867188 -10.613281 8.484375 -10.21875 C 9.097656 -9.832031 9.554688 -9.300781 9.859375 -8.625 C 10.265625 -9.3125 10.773438 -9.847656 11.390625 -10.234375 C 12.015625 -10.617188 12.726562 -10.8125 13.53125 -10.8125 C 14.125 -10.8125 14.671875 -10.703125 15.171875 -10.484375 C 15.671875 -10.273438 16.097656 -9.976562 16.453125 -9.59375 C 16.816406 -9.207031 17.097656 -8.75 17.296875 -8.21875 C 17.492188 -7.6875 17.59375 -7.117188 17.59375 -6.515625 L 17.59375 0 L 16.09375 0 L 16.09375 -6.296875 C 16.09375 -7.253906 15.835938 -8.015625 15.328125 -8.578125 C 14.816406 -9.148438 14.125 -9.4375 13.25 -9.4375 C 12.375 -9.4375 11.671875 -9.15625 11.140625 -8.59375 C 10.609375 -8.03125 10.34375 -7.265625 10.34375 -6.296875 L 10.34375 0 L 8.859375 0 L 8.859375 -6.296875 C 8.859375 -7.265625 8.597656 -8.03125 8.078125 -8.59375 C 7.566406 -9.15625 6.875 -9.4375 6 -9.4375 C 5.125 -9.4375 4.421875 -9.144531 3.890625 -8.5625 C 3.367188 -7.988281 3.109375 -7.234375 3.109375 -6.296875 L 3.109375 0 L 1.609375 0 Z M 1.609375 -10.578125 "/></g></g></g><g fill="#000000" fill-opacity="1"><g transform="translate(70.481631, 131.312898)"><g><path d="M 4.515625 0.234375 C 3.972656 0.234375 3.472656 0.15625 3.015625 0 C 2.566406 -0.164062 2.175781 -0.394531 1.84375 -0.6875 C 1.519531 -0.976562 1.265625 -1.328125 1.078125 -1.734375 C 0.898438 -2.140625 0.8125 -2.582031 0.8125 -3.0625 C 0.8125 -3.5625 0.910156 -4.019531 1.109375 -4.4375 C 1.316406 -4.851562 1.601562 -5.210938 1.96875 -5.515625 C 2.34375 -5.828125 2.78125 -6.066406 3.28125 -6.234375 C 3.78125 -6.398438 4.320312 -6.484375 4.90625 -6.484375 C 5.539062 -6.484375 6.101562 -6.414062 6.59375 -6.28125 C 7.09375 -6.15625 7.578125 -5.945312 8.046875 -5.65625 L 8.046875 -6.328125 C 8.046875 -7.273438 7.789062 -8.035156 7.28125 -8.609375 C 6.769531 -9.179688 6.09375 -9.46875 5.25 -9.46875 C 4.15625 -9.46875 3.265625 -8.992188 2.578125 -8.046875 L 1.46875 -8.96875 C 1.976562 -9.5625 2.5625 -10.015625 3.21875 -10.328125 C 3.875 -10.648438 4.570312 -10.8125 5.3125 -10.8125 C 5.925781 -10.8125 6.492188 -10.703125 7.015625 -10.484375 C 7.535156 -10.273438 7.984375 -9.976562 8.359375 -9.59375 C 8.734375 -9.207031 9.023438 -8.75 9.234375 -8.21875 C 9.441406 -7.6875 9.546875 -7.117188 9.546875 -6.515625 L 9.546875 0 L 8.046875 0 L 8.046875 -1.65625 C 7.609375 -1.007812 7.085938 -0.53125 6.484375 -0.21875 C 5.890625 0.0820312 5.234375 0.234375 4.515625 0.234375 Z M 4.78125 -1.109375 C 5.257812 -1.109375 5.695312 -1.179688 6.09375 -1.328125 C 6.488281 -1.484375 6.832031 -1.695312 7.125 -1.96875 C 7.414062 -2.238281 7.640625 -2.5625 7.796875 -2.9375 C 7.960938 -3.320312 8.046875 -3.742188 8.046875 -4.203125 C 7.546875 -4.554688 7.050781 -4.8125 6.5625 -4.96875 C 6.082031 -5.132812 5.515625 -5.21875 4.859375 -5.21875 C 4.078125 -5.21875 3.453125 -5.03125 2.984375 -4.65625 C 2.523438 -4.28125 2.296875 -3.769531 2.296875 -3.125 C 2.296875 -2.5 2.519531 -2.003906 2.96875 -1.640625 C 3.414062 -1.285156 4.019531 -1.109375 4.78125 -1.109375 Z M 4.78125 -1.109375 "/></g></g></g><g fill="#000000" fill-opacity="1"><g transform="translate(81.517912, 131.312898)"><g><path d="M 1.609375 -10.578125 L 3.109375 -10.578125 L 3.109375 -8.96875 C 3.921875 -10.195312 4.945312 -10.8125 6.1875 -10.8125 C 6.3125 -10.8125 6.425781 -10.804688 6.53125 -10.796875 C 6.632812 -10.785156 6.726562 -10.773438 6.8125 -10.765625 L 6.515625 -9.078125 C 6.328125 -9.128906 6.117188 -9.15625 5.890625 -9.15625 C 5.054688 -9.15625 4.382812 -8.898438 3.875 -8.390625 C 3.363281 -7.890625 3.109375 -7.191406 3.109375 -6.296875 L 3.109375 0 L 1.609375 0 Z M 1.609375 -10.578125 "/></g></g></g><g fill="#000000" fill-opacity="1"><g transform="translate(88.6685, 131.312898)"><g><path d="M 5.25 0.234375 C 4.375 0.234375 3.679688 -0.0351562 3.171875 -0.578125 C 2.671875 -1.128906 2.421875 -1.878906 2.421875 -2.828125 L 2.421875 -9.25 L 0.8125 -9.25 L 0.8125 -10.578125 L 2.421875 -10.578125 L 2.421875 -13.390625 L 3.90625 -13.390625 L 3.90625 -10.578125 L 7.0625 -10.578125 L 7.0625 -9.25 L 3.90625 -9.25 L 3.90625 -2.828125 C 3.90625 -2.273438 4.039062 -1.847656 4.3125 -1.546875 C 4.582031 -1.253906 4.960938 -1.109375 5.453125 -1.109375 C 6.078125 -1.109375 6.613281 -1.351562 7.0625 -1.84375 L 7.796875 -0.96875 C 7.472656 -0.582031 7.097656 -0.285156 6.671875 -0.078125 C 6.253906 0.128906 5.78125 0.234375 5.25 0.234375 Z M 5.25 0.234375 "/></g></g></g><g fill="#000000" fill-opacity="1"><g transform="translate(96.807755, 131.312898)"><g/></g></g><g fill="#000000" fill-opacity="1"><g transform="translate(101.866055, 131.312898)"><g><path d="M 1.609375 -10.578125 L 3.109375 -10.578125 L 3.109375 -8.953125 C 3.953125 -10.191406 5.046875 -10.8125 6.390625 -10.8125 C 7.171875 -10.8125 7.867188 -10.613281 8.484375 -10.21875 C 9.097656 -9.832031 9.554688 -9.300781 9.859375 -8.625 C 10.265625 -9.3125 10.773438 -9.847656 11.390625 -10.234375 C 12.015625 -10.617188 12.726562 -10.8125 13.53125 -10.8125 C 14.125 -10.8125 14.671875 -10.703125 15.171875 -10.484375 C 15.671875 -10.273438 16.097656 -9.976562 16.453125 -9.59375 C 16.816406 -9.207031 17.097656 -8.75 17.296875 -8.21875 C 17.492188 -7.6875 17.59375 -7.117188 17.59375 -6.515625 L 17.59375 0 L 16.09375 0 L 16.09375 -6.296875 C 16.09375 -7.253906 15.835938 -8.015625 15.328125 -8.578125 C 14.816406 -9.148438 14.125 -9.4375 13.25 -9.4375 C 12.375 -9.4375 11.671875 -9.15625 11.140625 -8.59375 C 10.609375 -8.03125 10.34375 -7.265625 10.34375 -6.296875 L 10.34375 0 L 8.859375 0 L 8.859375 -6.296875 C 8.859375 -7.265625 8.597656 -8.03125 8.078125 -8.59375 C 7.566406 -9.15625 6.875 -9.4375 6 -9.4375 C 5.125 -9.4375 4.421875 -9.144531 3.890625 -8.5625 C 3.367188 -7.988281 3.109375 -7.234375 3.109375 -6.296875 L 3.109375 0 L 1.609375 0 Z M 1.609375 -10.578125 "/></g></g></g><g fill="#000000" fill-opacity="1"><g transform="translate(120.949627, 131.312898)"><g><path d="M 4.515625 0.234375 C 3.972656 0.234375 3.472656 0.15625 3.015625 0 C 2.566406 -0.164062 2.175781 -0.394531 1.84375 -0.6875 C 1.519531 -0.976562 1.265625 -1.328125 1.078125 -1.734375 C 0.898438 -2.140625 0.8125 -2.582031 0.8125 -3.0625 C 0.8125 -3.5625 0.910156 -4.019531 1.109375 -4.4375 C 1.316406 -4.851562 1.601562 -5.210938 1.96875 -5.515625 C 2.34375 -5.828125 2.78125 -6.066406 3.28125 -6.234375 C 3.78125 -6.398438 4.320312 -6.484375 4.90625 -6.484375 C 5.539062 -6.484375 6.101562 -6.414062 6.59375 -6.28125 C 7.09375 -6.15625 7.578125 -5.945312 8.046875 -5.65625 L 8.046875 -6.328125 C 8.046875 -7.273438 7.789062 -8.035156 7.28125 -8.609375 C 6.769531 -9.179688 6.09375 -9.46875 5.25 -9.46875 C 4.15625 -9.46875 3.265625 -8.992188 2.578125 -8.046875 L 1.46875 -8.96875 C 1.976562 -9.5625 2.5625 -10.015625 3.21875 -10.328125 C 3.875 -10.648438 4.570312 -10.8125 5.3125 -10.8125 C 5.925781 -10.8125 6.492188 -10.703125 7.015625 -10.484375 C 7.535156 -10.273438 7.984375 -9.976562 8.359375 -9.59375 C 8.734375 -9.207031 9.023438 -8.75 9.234375 -8.21875 C 9.441406 -7.6875 9.546875 -7.117188 9.546875 -6.515625 L 9.546875 0 L 8.046875 0 L 8.046875 -1.65625 C 7.609375 -1.007812 7.085938 -0.53125 6.484375 -0.21875 C 5.890625 0.0820312 5.234375 0.234375 4.515625 0.234375 Z M 4.78125 -1.109375 C 5.257812 -1.109375 5.695312 -1.179688 6.09375 -1.328125 C 6.488281 -1.484375 6.832031 -1.695312 7.125 -1.96875 C 7.414062 -2.238281 7.640625 -2.5625 7.796875 -2.9375 C 7.960938 -3.320312 8.046875 -3.742188 8.046875 -4.203125 C 7.546875 -4.554688 7.050781 -4.8125 6.5625 -4.96875 C 6.082031 -5.132812 5.515625 -5.21875 4.859375 -5.21875 C 4.078125 -5.21875 3.453125 -5.03125 2.984375 -4.65625 C 2.523438 -4.28125 2.296875 -3.769531 2.296875 -3.125 C 2.296875 -2.5 2.519531 -2.003906 2.96875 -1.640625 C 3.414062 -1.285156 4.019531 -1.109375 4.78125 -1.109375 Z M 4.78125 -1.109375 "/></g></g></g><g fill="#000000" fill-opacity="1"><g transform="translate(131.985908, 131.312898)"><g><path d="M 1.609375 -10.578125 L 3.109375 -10.578125 L 3.109375 -8.953125 C 3.953125 -10.191406 5.046875 -10.8125 6.390625 -10.8125 C 6.960938 -10.8125 7.492188 -10.703125 7.984375 -10.484375 C 8.472656 -10.273438 8.890625 -9.976562 9.234375 -9.59375 C 9.578125 -9.207031 9.847656 -8.75 10.046875 -8.21875 C 10.242188 -7.6875 10.34375 -7.117188 10.34375 -6.515625 L 10.34375 0 L 8.859375 0 L 8.859375 -6.296875 C 8.859375 -7.265625 8.597656 -8.03125 8.078125 -8.59375 C 7.566406 -9.15625 6.875 -9.4375 6 -9.4375 C 5.125 -9.4375 4.421875 -9.144531 3.890625 -8.5625 C 3.367188 -7.988281 3.109375 -7.234375 3.109375 -6.296875 L 3.109375 0 L 1.609375 0 Z M 1.609375 -10.578125 "/></g></g></g><g fill="#000000" fill-opacity="1"><g transform="translate(143.826914, 131.312898)"><g><path d="M 4.515625 0.234375 C 3.972656 0.234375 3.472656 0.15625 3.015625 0 C 2.566406 -0.164062 2.175781 -0.394531 1.84375 -0.6875 C 1.519531 -0.976562 1.265625 -1.328125 1.078125 -1.734375 C 0.898438 -2.140625 0.8125 -2.582031 0.8125 -3.0625 C 0.8125 -3.5625 0.910156 -4.019531 1.109375 -4.4375 C 1.316406 -4.851562 1.601562 -5.210938 1.96875 -5.515625 C 2.34375 -5.828125 2.78125 -6.066406 3.28125 -6.234375 C 3.78125 -6.398438 4.320312 -6.484375 4.90625 -6.484375 C 5.539062 -6.484375 6.101562 -6.414062 6.59375 -6.28125 C 7.09375 -6.15625 7.578125 -5.945312 8.046875 -5.65625 L 8.046875 -6.328125 C 8.046875 -7.273438 7.789062 -8.035156 7.28125 -8.609375 C 6.769531 -9.179688 6.09375 -9.46875 5.25 -9.46875 C 4.15625 -9.46875 3.265625 -8.992188 2.578125 -8.046875 L 1.46875 -8.96875 C 1.976562 -9.5625 2.5625 -10.015625 3.21875 -10.328125 C 3.875 -10.648438 4.570312 -10.8125 5.3125 -10.8125 C 5.925781 -10.8125 6.492188 -10.703125 7.015625 -10.484375 C 7.535156 -10.273438 7.984375 -9.976562 8.359375 -9.59375 C 8.734375 -9.207031 9.023438 -8.75 9.234375 -8.21875 C 9.441406 -7.6875 9.546875 -7.117188 9.546875 -6.515625 L 9.546875 0 L 8.046875 0 L 8.046875 -1.65625 C 7.609375 -1.007812 7.085938 -0.53125 6.484375 -0.21875 C 5.890625 0.0820312 5.234375 0.234375 4.515625 0.234375 Z M 4.78125 -1.109375 C 5.257812 -1.109375 5.695312 -1.179688 6.09375 -1.328125 C 6.488281 -1.484375 6.832031 -1.695312 7.125 -1.96875 C 7.414062 -2.238281 7.640625 -2.5625 7.796875 -2.9375 C 7.960938 -3.320312 8.046875 -3.742188 8.046875 -4.203125 C 7.546875 -4.554688 7.050781 -4.8125 6.5625 -4.96875 C 6.082031 -5.132812 5.515625 -5.21875 4.859375 -5.21875 C 4.078125 -5.21875 3.453125 -5.03125 2.984375 -4.65625 C 2.523438 -4.28125 2.296875 -3.769531 2.296875 -3.125 C 2.296875 -2.5 2.519531 -2.003906 2.96875 -1.640625 C 3.414062 -1.285156 4.019531 -1.109375 4.78125 -1.109375 Z M 4.78125 -1.109375 "/></g></g></g><g fill="#000000" fill-opacity="1"><g transform="translate(154.863195, 131.312898)"><g><path d="M 6.125 4.421875 C 7.238281 4.421875 8.101562 4.226562 8.71875 3.84375 C 9.34375 3.457031 9.65625 2.921875 9.65625 2.234375 C 9.65625 1.554688 9.351562 1.023438 8.75 0.640625 C 8.144531 0.253906 7.273438 0.0625 6.140625 0.0625 C 5.035156 0.0625 4.175781 0.25 3.5625 0.625 C 2.945312 1.007812 2.640625 1.546875 2.640625 2.234375 C 2.640625 2.921875 2.941406 3.457031 3.546875 3.84375 C 4.160156 4.226562 5.019531 4.421875 6.125 4.421875 Z M 5.859375 -4.203125 C 6.734375 -4.203125 7.429688 -4.441406 7.953125 -4.921875 C 8.472656 -5.410156 8.734375 -6.054688 8.734375 -6.859375 C 8.734375 -7.648438 8.472656 -8.28125 7.953125 -8.75 C 7.429688 -9.226562 6.734375 -9.46875 5.859375 -9.46875 C 4.984375 -9.46875 4.285156 -9.226562 3.765625 -8.75 C 3.242188 -8.28125 2.984375 -7.648438 2.984375 -6.859375 C 2.984375 -6.046875 3.242188 -5.398438 3.765625 -4.921875 C 4.285156 -4.441406 4.984375 -4.203125 5.859375 -4.203125 Z M 6.125 5.75 C 5.363281 5.75 4.675781 5.664062 4.0625 5.5 C 3.457031 5.332031 2.9375 5.097656 2.5 4.796875 C 2.070312 4.492188 1.738281 4.128906 1.5 3.703125 C 1.269531 3.285156 1.15625 2.816406 1.15625 2.296875 C 1.15625 1.671875 1.316406 1.128906 1.640625 0.671875 C 1.972656 0.222656 2.445312 -0.132812 3.0625 -0.40625 C 2.570312 -0.582031 2.1875 -0.832031 1.90625 -1.15625 C 1.632812 -1.476562 1.5 -1.84375 1.5 -2.25 C 1.5 -2.625 1.601562 -2.960938 1.8125 -3.265625 C 2.03125 -3.566406 2.320312 -3.8125 2.6875 -4 C 2.300781 -4.351562 2.003906 -4.769531 1.796875 -5.25 C 1.597656 -5.738281 1.5 -6.273438 1.5 -6.859375 C 1.5 -7.441406 1.601562 -7.972656 1.8125 -8.453125 C 2.03125 -8.929688 2.332031 -9.347656 2.71875 -9.703125 C 3.113281 -10.054688 3.578125 -10.328125 4.109375 -10.515625 C 4.648438 -10.710938 5.25 -10.8125 5.90625 -10.8125 C 6.476562 -10.8125 6.992188 -10.734375 7.453125 -10.578125 L 11.15625 -10.578125 L 11.15625 -9.25 L 9.453125 -9.25 C 9.972656 -8.582031 10.234375 -7.785156 10.234375 -6.859375 C 10.234375 -6.273438 10.125 -5.738281 9.90625 -5.25 C 9.695312 -4.757812 9.398438 -4.335938 9.015625 -3.984375 C 8.628906 -3.628906 8.164062 -3.351562 7.625 -3.15625 C 7.09375 -2.96875 6.503906 -2.875 5.859375 -2.875 C 5.078125 -2.875 4.375 -3.019531 3.75 -3.3125 C 3.488281 -3.269531 3.285156 -3.160156 3.140625 -2.984375 C 3.003906 -2.816406 2.9375 -2.617188 2.9375 -2.390625 C 2.9375 -2.023438 3.117188 -1.742188 3.484375 -1.546875 C 3.859375 -1.359375 4.367188 -1.265625 5.015625 -1.265625 L 6.53125 -1.265625 C 7.96875 -1.265625 9.097656 -0.957031 9.921875 -0.34375 C 10.742188 0.269531 11.15625 1.097656 11.15625 2.140625 C 11.15625 2.691406 11.035156 3.1875 10.796875 3.625 C 10.554688 4.070312 10.210938 4.453125 9.765625 4.765625 C 9.328125 5.085938 8.796875 5.332031 8.171875 5.5 C 7.554688 5.664062 6.875 5.75 6.125 5.75 Z M 6.125 5.75 "/></g></g></g><g fill="#000000" fill-opacity="1"><g transform="translate(166.359265, 131.312898)"><g><path d="M 6.484375 0.234375 C 5.671875 0.234375 4.929688 0.0976562 4.265625 -0.171875 C 3.597656 -0.453125 3.023438 -0.835938 2.546875 -1.328125 C 2.078125 -1.816406 1.707031 -2.398438 1.4375 -3.078125 C 1.164062 -3.753906 1.03125 -4.492188 1.03125 -5.296875 C 1.03125 -6.085938 1.160156 -6.820312 1.421875 -7.5 C 1.679688 -8.175781 2.039062 -8.757812 2.5 -9.25 C 2.96875 -9.738281 3.519531 -10.117188 4.15625 -10.390625 C 4.789062 -10.671875 5.488281 -10.8125 6.25 -10.8125 C 6.976562 -10.8125 7.644531 -10.679688 8.25 -10.421875 C 8.863281 -10.171875 9.394531 -9.820312 9.84375 -9.375 C 10.289062 -8.9375 10.640625 -8.398438 10.890625 -7.765625 C 11.140625 -7.140625 11.265625 -6.453125 11.265625 -5.703125 C 11.265625 -5.398438 11.242188 -5.125 11.203125 -4.875 L 2.625 -4.875 C 2.71875 -3.726562 3.117188 -2.828125 3.828125 -2.171875 C 4.546875 -1.523438 5.460938 -1.203125 6.578125 -1.203125 C 7.972656 -1.203125 9.140625 -1.738281 10.078125 -2.8125 L 11.046875 -2 C 10.492188 -1.257812 9.820312 -0.703125 9.03125 -0.328125 C 8.25 0.046875 7.398438 0.234375 6.484375 0.234375 Z M 9.65625 -6.203125 C 9.53125 -7.222656 9.15625 -8.007812 8.53125 -8.5625 C 7.914062 -9.113281 7.140625 -9.390625 6.203125 -9.390625 C 5.242188 -9.390625 4.453125 -9.097656 3.828125 -8.515625 C 3.203125 -7.941406 2.816406 -7.171875 2.671875 -6.203125 Z M 9.65625 -6.203125 "/></g></g></g><g fill="#000000" fill-opacity="1"><g transform="translate(178.545163, 131.312898)"><g><path d="M 1.609375 -10.578125 L 3.109375 -10.578125 L 3.109375 -8.953125 C 3.953125 -10.191406 5.046875 -10.8125 6.390625 -10.8125 C 7.171875 -10.8125 7.867188 -10.613281 8.484375 -10.21875 C 9.097656 -9.832031 9.554688 -9.300781 9.859375 -8.625 C 10.265625 -9.3125 10.773438 -9.847656 11.390625 -10.234375 C 12.015625 -10.617188 12.726562 -10.8125 13.53125 -10.8125 C 14.125 -10.8125 14.671875 -10.703125 15.171875 -10.484375 C 15.671875 -10.273438 16.097656 -9.976562 16.453125 -9.59375 C 16.816406 -9.207031 17.097656 -8.75 17.296875 -8.21875 C 17.492188 -7.6875 17.59375 -7.117188 17.59375 -6.515625 L 17.59375 0 L 16.09375 0 L 16.09375 -6.296875 C 16.09375 -7.253906 15.835938 -8.015625 15.328125 -8.578125 C 14.816406 -9.148438 14.125 -9.4375 13.25 -9.4375 C 12.375 -9.4375 11.671875 -9.15625 11.140625 -8.59375 C 10.609375 -8.03125 10.34375 -7.265625 10.34375 -6.296875 L 10.34375 0 L 8.859375 0 L 8.859375 -6.296875 C 8.859375 -7.265625 8.597656 -8.03125 8.078125 -8.59375 C 7.566406 -9.15625 6.875 -9.4375 6 -9.4375 C 5.125 -9.4375 4.421875 -9.144531 3.890625 -8.5625 C 3.367188 -7.988281 3.109375 -7.234375 3.109375 -6.296875 L 3.109375 0 L 1.609375 0 Z M 1.609375 -10.578125 "/></g></g></g><g fill="#000000" fill-opacity="1"><g transform="translate(197.628734, 131.312898)"><g><path d="M 6.484375 0.234375 C 5.671875 0.234375 4.929688 0.0976562 4.265625 -0.171875 C 3.597656 -0.453125 3.023438 -0.835938 2.546875 -1.328125 C 2.078125 -1.816406 1.707031 -2.398438 1.4375 -3.078125 C 1.164062 -3.753906 1.03125 -4.492188 1.03125 -5.296875 C 1.03125 -6.085938 1.160156 -6.820312 1.421875 -7.5 C 1.679688 -8.175781 2.039062 -8.757812 2.5 -9.25 C 2.96875 -9.738281 3.519531 -10.117188 4.15625 -10.390625 C 4.789062 -10.671875 5.488281 -10.8125 6.25 -10.8125 C 6.976562 -10.8125 7.644531 -10.679688 8.25 -10.421875 C 8.863281 -10.171875 9.394531 -9.820312 9.84375 -9.375 C 10.289062 -8.9375 10.640625 -8.398438 10.890625 -7.765625 C 11.140625 -7.140625 11.265625 -6.453125 11.265625 -5.703125 C 11.265625 -5.398438 11.242188 -5.125 11.203125 -4.875 L 2.625 -4.875 C 2.71875 -3.726562 3.117188 -2.828125 3.828125 -2.171875 C 4.546875 -1.523438 5.460938 -1.203125 6.578125 -1.203125 C 7.972656 -1.203125 9.140625 -1.738281 10.078125 -2.8125 L 11.046875 -2 C 10.492188 -1.257812 9.820312 -0.703125 9.03125 -0.328125 C 8.25 0.046875 7.398438 0.234375 6.484375 0.234375 Z M 9.65625 -6.203125 C 9.53125 -7.222656 9.15625 -8.007812 8.53125 -8.5625 C 7.914062 -9.113281 7.140625 -9.390625 6.203125 -9.390625 C 5.242188 -9.390625 4.453125 -9.097656 3.828125 -8.515625 C 3.203125 -7.941406 2.816406 -7.171875 2.671875 -6.203125 Z M 9.65625 -6.203125 "/></g></g></g><g fill="#000000" fill-opacity="1"><g transform="translate(209.814631, 131.312898)"><g><path d="M 1.609375 -10.578125 L 3.109375 -10.578125 L 3.109375 -8.953125 C 3.953125 -10.191406 5.046875 -10.8125 6.390625 -10.8125 C 6.960938 -10.8125 7.492188 -10.703125 7.984375 -10.484375 C 8.472656 -10.273438 8.890625 -9.976562 9.234375 -9.59375 C 9.578125 -9.207031 9.847656 -8.75 10.046875 -8.21875 C 10.242188 -7.6875 10.34375 -7.117188 10.34375 -6.515625 L 10.34375 0 L 8.859375 0 L 8.859375 -6.296875 C 8.859375 -7.265625 8.597656 -8.03125 8.078125 -8.59375 C 7.566406 -9.15625 6.875 -9.4375 6 -9.4375 C 5.125 -9.4375 4.421875 -9.144531 3.890625 -8.5625 C 3.367188 -7.988281 3.109375 -7.234375 3.109375 -6.296875 L 3.109375 0 L 1.609375 0 Z M 1.609375 -10.578125 "/></g></g></g><g fill="#000000" fill-opacity="1"><g transform="translate(221.655638, 131.312898)"><g><path d="M 5.25 0.234375 C 4.375 0.234375 3.679688 -0.0351562 3.171875 -0.578125 C 2.671875 -1.128906 2.421875 -1.878906 2.421875 -2.828125 L 2.421875 -9.25 L 0.8125 -9.25 L 0.8125 -10.578125 L 2.421875 -10.578125 L 2.421875 -13.390625 L 3.90625 -13.390625 L 3.90625 -10.578125 L 7.0625 -10.578125 L 7.0625 -9.25 L 3.90625 -9.25 L 3.90625 -2.828125 C 3.90625 -2.273438 4.039062 -1.847656 4.3125 -1.546875 C 4.582031 -1.253906 4.960938 -1.109375 5.453125 -1.109375 C 6.078125 -1.109375 6.613281 -1.351562 7.0625 -1.84375 L 7.796875 -0.96875 C 7.472656 -0.582031 7.097656 -0.285156 6.671875 -0.078125 C 6.253906 0.128906 5.78125 0.234375 5.25 0.234375 Z M 5.25 0.234375 "/></g></g></g><g fill="#000000" fill-opacity="1"><g transform="translate(229.794893, 131.312898)"><g><path d="M 0.921875 3.125 L 2.34375 -2.109375 L 4.03125 -1.5 L 1.796875 3.453125 Z M 0.921875 3.125 "/></g></g></g><g fill="#000000" fill-opacity="1"><g transform="translate(235.313051, 131.312898)"><g/></g></g><g fill="#000000" fill-opacity="1"><g transform="translate(240.371339, 131.312898)"><g><path d="M 5.765625 0.234375 C 4.722656 0.234375 3.757812 -0.015625 2.875 -0.515625 C 2 -1.015625 1.269531 -1.734375 0.6875 -2.671875 L 1.9375 -3.6875 C 3.007812 -2.050781 4.296875 -1.234375 5.796875 -1.234375 C 6.703125 -1.234375 7.429688 -1.476562 7.984375 -1.96875 C 8.535156 -2.46875 8.8125 -3.125 8.8125 -3.9375 C 8.8125 -4.632812 8.5625 -5.238281 8.0625 -5.75 C 7.5625 -6.257812 6.757812 -6.734375 5.65625 -7.171875 C 4.257812 -7.710938 3.25 -8.34375 2.625 -9.0625 C 2.007812 -9.78125 1.703125 -10.640625 1.703125 -11.640625 C 1.703125 -12.234375 1.800781 -12.773438 2 -13.265625 C 2.195312 -13.753906 2.476562 -14.175781 2.84375 -14.53125 C 3.21875 -14.882812 3.660156 -15.15625 4.171875 -15.34375 C 4.679688 -15.539062 5.253906 -15.640625 5.890625 -15.640625 C 7.648438 -15.640625 9.109375 -14.859375 10.265625 -13.296875 L 9.015625 -12.28125 C 8.554688 -12.925781 8.066406 -13.394531 7.546875 -13.6875 C 7.035156 -13.988281 6.472656 -14.140625 5.859375 -14.140625 C 5.078125 -14.140625 4.457031 -13.925781 4 -13.5 C 3.539062 -13.070312 3.3125 -12.5 3.3125 -11.78125 C 3.3125 -11.082031 3.546875 -10.492188 4.015625 -10.015625 C 4.484375 -9.535156 5.257812 -9.078125 6.34375 -8.640625 C 7.738281 -8.109375 8.765625 -7.46875 9.421875 -6.71875 C 10.085938 -5.976562 10.421875 -5.097656 10.421875 -4.078125 C 10.421875 -3.441406 10.304688 -2.859375 10.078125 -2.328125 C 9.847656 -1.804688 9.523438 -1.351562 9.109375 -0.96875 C 8.691406 -0.582031 8.195312 -0.285156 7.625 -0.078125 C 7.0625 0.128906 6.441406 0.234375 5.765625 0.234375 Z M 5.765625 0.234375 "/></g></g></g><g fill="#000000" fill-opacity="1"><g transform="translate(251.93644, 131.312898)"><g><path d="M 6.484375 0.234375 C 5.671875 0.234375 4.929688 0.0976562 4.265625 -0.171875 C 3.597656 -0.453125 3.023438 -0.835938 2.546875 -1.328125 C 2.078125 -1.816406 1.707031 -2.398438 1.4375 -3.078125 C 1.164062 -3.753906 1.03125 -4.492188 1.03125 -5.296875 C 1.03125 -6.085938 1.160156 -6.820312 1.421875 -7.5 C 1.679688 -8.175781 2.039062 -8.757812 2.5 -9.25 C 2.96875 -9.738281 3.519531 -10.117188 4.15625 -10.390625 C 4.789062 -10.671875 5.488281 -10.8125 6.25 -10.8125 C 6.976562 -10.8125 7.644531 -10.679688 8.25 -10.421875 C 8.863281 -10.171875 9.394531 -9.820312 9.84375 -9.375 C 10.289062 -8.9375 10.640625 -8.398438 10.890625 -7.765625 C 11.140625 -7.140625 11.265625 -6.453125 11.265625 -5.703125 C 11.265625 -5.398438 11.242188 -5.125 11.203125 -4.875 L 2.625 -4.875 C 2.71875 -3.726562 3.117188 -2.828125 3.828125 -2.171875 C 4.546875 -1.523438 5.460938 -1.203125 6.578125 -1.203125 C 7.972656 -1.203125 9.140625 -1.738281 10.078125 -2.8125 L 11.046875 -2 C 10.492188 -1.257812 9.820312 -0.703125 9.03125 -0.328125 C 8.25 0.046875 7.398438 0.234375 6.484375 0.234375 Z M 9.65625 -6.203125 C 9.53125 -7.222656 9.15625 -8.007812 8.53125 -8.5625 C 7.914062 -9.113281 7.140625 -9.390625 6.203125 -9.390625 C 5.242188 -9.390625 4.453125 -9.097656 3.828125 -8.515625 C 3.203125 -7.941406 2.816406 -7.171875 2.671875 -6.203125 Z M 9.65625 -6.203125 "/></g></g></g><g fill="#000000" fill-opacity="1"><g transform="translate(264.122337, 131.312898)"><g><path d="M 4.515625 0.234375 C 3.972656 0.234375 3.472656 0.15625 3.015625 0 C 2.566406 -0.164062 2.175781 -0.394531 1.84375 -0.6875 C 1.519531 -0.976562 1.265625 -1.328125 1.078125 -1.734375 C 0.898438 -2.140625 0.8125 -2.582031 0.8125 -3.0625 C 0.8125 -3.5625 0.910156 -4.019531 1.109375 -4.4375 C 1.316406 -4.851562 1.601562 -5.210938 1.96875 -5.515625 C 2.34375 -5.828125 2.78125 -6.066406 3.28125 -6.234375 C 3.78125 -6.398438 4.320312 -6.484375 4.90625 -6.484375 C 5.539062 -6.484375 6.101562 -6.414062 6.59375 -6.28125 C 7.09375 -6.15625 7.578125 -5.945312 8.046875 -5.65625 L 8.046875 -6.328125 C 8.046875 -7.273438 7.789062 -8.035156 7.28125 -8.609375 C 6.769531 -9.179688 6.09375 -9.46875 5.25 -9.46875 C 4.15625 -9.46875 3.265625 -8.992188 2.578125 -8.046875 L 1.46875 -8.96875 C 1.976562 -9.5625 2.5625 -10.015625 3.21875 -10.328125 C 3.875 -10.648438 4.570312 -10.8125 5.3125 -10.8125 C 5.925781 -10.8125 6.492188 -10.703125 7.015625 -10.484375 C 7.535156 -10.273438 7.984375 -9.976562 8.359375 -9.59375 C 8.734375 -9.207031 9.023438 -8.75 9.234375 -8.21875 C 9.441406 -7.6875 9.546875 -7.117188 9.546875 -6.515625 L 9.546875 0 L 8.046875 0 L 8.046875 -1.65625 C 7.609375 -1.007812 7.085938 -0.53125 6.484375 -0.21875 C 5.890625 0.0820312 5.234375 0.234375 4.515625 0.234375 Z M 4.78125 -1.109375 C 5.257812 -1.109375 5.695312 -1.179688 6.09375 -1.328125 C 6.488281 -1.484375 6.832031 -1.695312 7.125 -1.96875 C 7.414062 -2.238281 7.640625 -2.5625 7.796875 -2.9375 C 7.960938 -3.320312 8.046875 -3.742188 8.046875 -4.203125 C 7.546875 -4.554688 7.050781 -4.8125 6.5625 -4.96875 C 6.082031 -5.132812 5.515625 -5.21875 4.859375 -5.21875 C 4.078125 -5.21875 3.453125 -5.03125 2.984375 -4.65625 C 2.523438 -4.28125 2.296875 -3.769531 2.296875 -3.125 C 2.296875 -2.5 2.519531 -2.003906 2.96875 -1.640625 C 3.414062 -1.285156 4.019531 -1.109375 4.78125 -1.109375 Z M 4.78125 -1.109375 "/></g></g></g><g fill="#000000" fill-opacity="1"><g transform="translate(275.15863, 131.312898)"><g><path d="M 1.609375 -10.578125 L 3.109375 -10.578125 L 3.109375 -8.953125 C 3.953125 -10.191406 5.046875 -10.8125 6.390625 -10.8125 C 7.171875 -10.8125 7.867188 -10.613281 8.484375 -10.21875 C 9.097656 -9.832031 9.554688 -9.300781 9.859375 -8.625 C 10.265625 -9.3125 10.773438 -9.847656 11.390625 -10.234375 C 12.015625 -10.617188 12.726562 -10.8125 13.53125 -10.8125 C 14.125 -10.8125 14.671875 -10.703125 15.171875 -10.484375 C 15.671875 -10.273438 16.097656 -9.976562 16.453125 -9.59375 C 16.816406 -9.207031 17.097656 -8.75 17.296875 -8.21875 C 17.492188 -7.6875 17.59375 -7.117188 17.59375 -6.515625 L 17.59375 0 L 16.09375 0 L 16.09375 -6.296875 C 16.09375 -7.253906 15.835938 -8.015625 15.328125 -8.578125 C 14.816406 -9.148438 14.125 -9.4375 13.25 -9.4375 C 12.375 -9.4375 11.671875 -9.15625 11.140625 -8.59375 C 10.609375 -8.03125 10.34375 -7.265625 10.34375 -6.296875 L 10.34375 0 L 8.859375 0 L 8.859375 -6.296875 C 8.859375 -7.265625 8.597656 -8.03125 8.078125 -8.59375 C 7.566406 -9.15625 6.875 -9.4375 6 -9.4375 C 5.125 -9.4375 4.421875 -9.144531 3.890625 -8.5625 C 3.367188 -7.988281 3.109375 -7.234375 3.109375 -6.296875 L 3.109375 0 L 1.609375 0 Z M 1.609375 -10.578125 "/></g></g></g><g fill="#000000" fill-opacity="1"><g transform="translate(294.242201, 131.312898)"><g><path d="M 1.609375 -16.328125 L 3.109375 -16.328125 L 3.109375 0 L 1.609375 0 Z M 1.609375 -16.328125 "/></g></g></g><g fill="#000000" fill-opacity="1"><g transform="translate(298.95561, 131.312898)"><g><path d="M 6.484375 0.234375 C 5.671875 0.234375 4.929688 0.0976562 4.265625 -0.171875 C 3.597656 -0.453125 3.023438 -0.835938 2.546875 -1.328125 C 2.078125 -1.816406 1.707031 -2.398438 1.4375 -3.078125 C 1.164062 -3.753906 1.03125 -4.492188 1.03125 -5.296875 C 1.03125 -6.085938 1.160156 -6.820312 1.421875 -7.5 C 1.679688 -8.175781 2.039062 -8.757812 2.5 -9.25 C 2.96875 -9.738281 3.519531 -10.117188 4.15625 -10.390625 C 4.789062 -10.671875 5.488281 -10.8125 6.25 -10.8125 C 6.976562 -10.8125 7.644531 -10.679688 8.25 -10.421875 C 8.863281 -10.171875 9.394531 -9.820312 9.84375 -9.375 C 10.289062 -8.9375 10.640625 -8.398438 10.890625 -7.765625 C 11.140625 -7.140625 11.265625 -6.453125 11.265625 -5.703125 C 11.265625 -5.398438 11.242188 -5.125 11.203125 -4.875 L 2.625 -4.875 C 2.71875 -3.726562 3.117188 -2.828125 3.828125 -2.171875 C 4.546875 -1.523438 5.460938 -1.203125 6.578125 -1.203125 C 7.972656 -1.203125 9.140625 -1.738281 10.078125 -2.8125 L 11.046875 -2 C 10.492188 -1.257812 9.820312 -0.703125 9.03125 -0.328125 C 8.25 0.046875 7.398438 0.234375 6.484375 0.234375 Z M 9.65625 -6.203125 C 9.53125 -7.222656 9.15625 -8.007812 8.53125 -8.5625 C 7.914062 -9.113281 7.140625 -9.390625 6.203125 -9.390625 C 5.242188 -9.390625 4.453125 -9.097656 3.828125 -8.515625 C 3.203125 -7.941406 2.816406 -7.171875 2.671875 -6.203125 Z M 9.65625 -6.203125 "/></g></g></g><g fill="#000000" fill-opacity="1"><g transform="translate(311.141507, 131.312898)"><g><path d="M 5.265625 0.234375 C 4.347656 0.234375 3.507812 0.0390625 2.75 -0.34375 C 1.988281 -0.726562 1.34375 -1.3125 0.8125 -2.09375 L 1.90625 -3.03125 C 2.78125 -1.726562 3.914062 -1.078125 5.3125 -1.078125 C 6.050781 -1.078125 6.640625 -1.234375 7.078125 -1.546875 C 7.515625 -1.867188 7.734375 -2.296875 7.734375 -2.828125 C 7.734375 -3.273438 7.539062 -3.628906 7.15625 -3.890625 C 6.78125 -4.160156 6.160156 -4.410156 5.296875 -4.640625 C 3.972656 -4.984375 3.007812 -5.410156 2.40625 -5.921875 C 1.8125 -6.429688 1.515625 -7.078125 1.515625 -7.859375 C 1.515625 -8.753906 1.84375 -9.46875 2.5 -10 C 3.164062 -10.539062 4.039062 -10.8125 5.125 -10.8125 C 5.957031 -10.8125 6.710938 -10.644531 7.390625 -10.3125 C 8.078125 -9.988281 8.664062 -9.503906 9.15625 -8.859375 L 8.046875 -7.9375 C 7.316406 -8.976562 6.328125 -9.5 5.078125 -9.5 C 4.429688 -9.5 3.925781 -9.363281 3.5625 -9.09375 C 3.195312 -8.820312 3.015625 -8.453125 3.015625 -7.984375 C 3.015625 -7.535156 3.203125 -7.171875 3.578125 -6.890625 C 3.953125 -6.617188 4.582031 -6.375 5.46875 -6.15625 C 6.769531 -5.84375 7.71875 -5.425781 8.3125 -4.90625 C 8.914062 -4.394531 9.21875 -3.738281 9.21875 -2.9375 C 9.21875 -2.46875 9.117188 -2.035156 8.921875 -1.640625 C 8.734375 -1.253906 8.460938 -0.921875 8.109375 -0.640625 C 7.765625 -0.367188 7.347656 -0.15625 6.859375 0 C 6.378906 0.15625 5.847656 0.234375 5.265625 0.234375 Z M 5.265625 0.234375 "/></g></g></g><g fill="#000000" fill-opacity="1"><g transform="translate(321.396054, 131.312898)"><g><path d="M 5.265625 0.234375 C 4.347656 0.234375 3.507812 0.0390625 2.75 -0.34375 C 1.988281 -0.726562 1.34375 -1.3125 0.8125 -2.09375 L 1.90625 -3.03125 C 2.78125 -1.726562 3.914062 -1.078125 5.3125 -1.078125 C 6.050781 -1.078125 6.640625 -1.234375 7.078125 -1.546875 C 7.515625 -1.867188 7.734375 -2.296875 7.734375 -2.828125 C 7.734375 -3.273438 7.539062 -3.628906 7.15625 -3.890625 C 6.78125 -4.160156 6.160156 -4.410156 5.296875 -4.640625 C 3.972656 -4.984375 3.007812 -5.410156 2.40625 -5.921875 C 1.8125 -6.429688 1.515625 -7.078125 1.515625 -7.859375 C 1.515625 -8.753906 1.84375 -9.46875 2.5 -10 C 3.164062 -10.539062 4.039062 -10.8125 5.125 -10.8125 C 5.957031 -10.8125 6.710938 -10.644531 7.390625 -10.3125 C 8.078125 -9.988281 8.664062 -9.503906 9.15625 -8.859375 L 8.046875 -7.9375 C 7.316406 -8.976562 6.328125 -9.5 5.078125 -9.5 C 4.429688 -9.5 3.925781 -9.363281 3.5625 -9.09375 C 3.195312 -8.820312 3.015625 -8.453125 3.015625 -7.984375 C 3.015625 -7.535156 3.203125 -7.171875 3.578125 -6.890625 C 3.953125 -6.617188 4.582031 -6.375 5.46875 -6.15625 C 6.769531 -5.84375 7.71875 -5.425781 8.3125 -4.90625 C 8.914062 -4.394531 9.21875 -3.738281 9.21875 -2.9375 C 9.21875 -2.46875 9.117188 -2.035156 8.921875 -1.640625 C 8.734375 -1.253906 8.460938 -0.921875 8.109375 -0.640625 C 7.765625 -0.367188 7.347656 -0.15625 6.859375 0 C 6.378906 0.15625 5.847656 0.234375 5.265625 0.234375 Z M 5.265625 0.234375 "/></g></g></g><g fill="#000000" fill-opacity="1"><g transform="translate(331.650601, 131.312898)"><g/></g></g><g fill="#000000" fill-opacity="1"><g transform="translate(336.708889, 131.312898)"><g><path d="M 8.859375 0.234375 C 7.796875 0.234375 6.796875 0.0234375 5.859375 -0.390625 C 4.929688 -0.804688 4.117188 -1.375 3.421875 -2.09375 C 2.722656 -2.8125 2.171875 -3.648438 1.765625 -4.609375 C 1.359375 -5.566406 1.15625 -6.597656 1.15625 -7.703125 C 1.15625 -8.796875 1.359375 -9.820312 1.765625 -10.78125 C 2.171875 -11.75 2.722656 -12.59375 3.421875 -13.3125 C 4.117188 -14.03125 4.929688 -14.597656 5.859375 -15.015625 C 6.796875 -15.429688 7.796875 -15.640625 8.859375 -15.640625 C 9.910156 -15.640625 10.90625 -15.429688 11.84375 -15.015625 C 12.78125 -14.597656 13.597656 -14.03125 14.296875 -13.3125 C 14.992188 -12.59375 15.546875 -11.753906 15.953125 -10.796875 C 16.359375 -9.835938 16.5625 -8.804688 16.5625 -7.703125 C 16.5625 -6.617188 16.359375 -5.597656 15.953125 -4.640625 C 15.546875 -3.679688 14.992188 -2.835938 14.296875 -2.109375 C 13.597656 -1.390625 12.78125 -0.816406 11.84375 -0.390625 C 10.90625 0.0234375 9.910156 0.234375 8.859375 0.234375 Z M 8.859375 -1.359375 C 9.703125 -1.359375 10.488281 -1.519531 11.21875 -1.84375 C 11.957031 -2.164062 12.59375 -2.609375 13.125 -3.171875 C 13.65625 -3.742188 14.070312 -4.414062 14.375 -5.1875 C 14.675781 -5.957031 14.828125 -6.796875 14.828125 -7.703125 C 14.828125 -8.609375 14.675781 -9.445312 14.375 -10.21875 C 14.070312 -11 13.65625 -11.671875 13.125 -12.234375 C 12.59375 -12.804688 11.957031 -13.25 11.21875 -13.5625 C 10.488281 -13.882812 9.703125 -14.046875 8.859375 -14.046875 C 7.992188 -14.046875 7.195312 -13.882812 6.46875 -13.5625 C 5.738281 -13.25 5.109375 -12.804688 4.578125 -12.234375 C 4.054688 -11.671875 3.640625 -11 3.328125 -10.21875 C 3.023438 -9.445312 2.875 -8.609375 2.875 -7.703125 C 2.875 -6.796875 3.023438 -5.957031 3.328125 -5.1875 C 3.640625 -4.414062 4.054688 -3.742188 4.578125 -3.171875 C 5.109375 -2.609375 5.738281 -2.164062 6.46875 -1.84375 C 7.195312 -1.519531 7.992188 -1.359375 8.859375 -1.359375 Z M 8.859375 -1.359375 "/></g></g></g><g fill="#000000" fill-opacity="1"><g transform="translate(354.412921, 131.312898)"><g><path d="M 6.640625 -1.15625 C 7.179688 -1.15625 7.679688 -1.257812 8.140625 -1.46875 C 8.597656 -1.6875 8.992188 -1.976562 9.328125 -2.34375 C 9.660156 -2.707031 9.921875 -3.144531 10.109375 -3.65625 C 10.296875 -4.164062 10.390625 -4.710938 10.390625 -5.296875 C 10.390625 -5.867188 10.296875 -6.410156 10.109375 -6.921875 C 9.921875 -7.429688 9.660156 -7.867188 9.328125 -8.234375 C 8.992188 -8.597656 8.597656 -8.882812 8.140625 -9.09375 C 7.679688 -9.300781 7.179688 -9.40625 6.640625 -9.40625 C 6.085938 -9.40625 5.582031 -9.296875 5.125 -9.078125 C 4.664062 -8.867188 4.269531 -8.578125 3.9375 -8.203125 C 3.613281 -7.835938 3.351562 -7.40625 3.15625 -6.90625 C 2.96875 -6.40625 2.875 -5.867188 2.875 -5.296875 C 2.875 -4.710938 2.96875 -4.164062 3.15625 -3.65625 C 3.351562 -3.144531 3.613281 -2.707031 3.9375 -2.34375 C 4.269531 -1.976562 4.664062 -1.6875 5.125 -1.46875 C 5.582031 -1.257812 6.085938 -1.15625 6.640625 -1.15625 Z M 1.609375 -10.578125 L 3.109375 -10.578125 L 3.109375 -8.78125 C 3.535156 -9.425781 4.070312 -9.925781 4.71875 -10.28125 C 5.375 -10.632812 6.101562 -10.8125 6.90625 -10.8125 C 7.601562 -10.8125 8.257812 -10.664062 8.875 -10.375 C 9.488281 -10.09375 10.023438 -9.703125 10.484375 -9.203125 C 10.941406 -8.710938 11.300781 -8.128906 11.5625 -7.453125 C 11.820312 -6.773438 11.953125 -6.054688 11.953125 -5.296875 C 11.953125 -4.523438 11.820312 -3.800781 11.5625 -3.125 C 11.300781 -2.445312 10.941406 -1.859375 10.484375 -1.359375 C 10.023438 -0.867188 9.484375 -0.476562 8.859375 -0.1875 C 8.242188 0.09375 7.582031 0.234375 6.875 0.234375 C 6.082031 0.234375 5.363281 0.0546875 4.71875 -0.296875 C 4.070312 -0.648438 3.535156 -1.140625 3.109375 -1.765625 L 3.109375 5.75 L 1.609375 5.75 Z M 1.609375 -10.578125 "/></g></g></g><g fill="#000000" fill-opacity="1"><g transform="translate(367.403543, 131.312898)"><g><path d="M 6.484375 0.234375 C 5.671875 0.234375 4.929688 0.0976562 4.265625 -0.171875 C 3.597656 -0.453125 3.023438 -0.835938 2.546875 -1.328125 C 2.078125 -1.816406 1.707031 -2.398438 1.4375 -3.078125 C 1.164062 -3.753906 1.03125 -4.492188 1.03125 -5.296875 C 1.03125 -6.085938 1.160156 -6.820312 1.421875 -7.5 C 1.679688 -8.175781 2.039062 -8.757812 2.5 -9.25 C 2.96875 -9.738281 3.519531 -10.117188 4.15625 -10.390625 C 4.789062 -10.671875 5.488281 -10.8125 6.25 -10.8125 C 6.976562 -10.8125 7.644531 -10.679688 8.25 -10.421875 C 8.863281 -10.171875 9.394531 -9.820312 9.84375 -9.375 C 10.289062 -8.9375 10.640625 -8.398438 10.890625 -7.765625 C 11.140625 -7.140625 11.265625 -6.453125 11.265625 -5.703125 C 11.265625 -5.398438 11.242188 -5.125 11.203125 -4.875 L 2.625 -4.875 C 2.71875 -3.726562 3.117188 -2.828125 3.828125 -2.171875 C 4.546875 -1.523438 5.460938 -1.203125 6.578125 -1.203125 C 7.972656 -1.203125 9.140625 -1.738281 10.078125 -2.8125 L 11.046875 -2 C 10.492188 -1.257812 9.820312 -0.703125 9.03125 -0.328125 C 8.25 0.046875 7.398438 0.234375 6.484375 0.234375 Z M 9.65625 -6.203125 C 9.53125 -7.222656 9.15625 -8.007812 8.53125 -8.5625 C 7.914062 -9.113281 7.140625 -9.390625 6.203125 -9.390625 C 5.242188 -9.390625 4.453125 -9.097656 3.828125 -8.515625 C 3.203125 -7.941406 2.816406 -7.171875 2.671875 -6.203125 Z M 9.65625 -6.203125 "/></g></g></g><g fill="#000000" fill-opacity="1"><g transform="translate(379.589441, 131.312898)"><g><path d="M 1.609375 -10.578125 L 3.109375 -10.578125 L 3.109375 -8.96875 C 3.921875 -10.195312 4.945312 -10.8125 6.1875 -10.8125 C 6.3125 -10.8125 6.425781 -10.804688 6.53125 -10.796875 C 6.632812 -10.785156 6.726562 -10.773438 6.8125 -10.765625 L 6.515625 -9.078125 C 6.328125 -9.128906 6.117188 -9.15625 5.890625 -9.15625 C 5.054688 -9.15625 4.382812 -8.898438 3.875 -8.390625 C 3.363281 -7.890625 3.109375 -7.191406 3.109375 -6.296875 L 3.109375 0 L 1.609375 0 Z M 1.609375 -10.578125 "/></g></g></g><g fill="#000000" fill-opacity="1"><g transform="translate(386.740029, 131.312898)"><g><path d="M 4.515625 0.234375 C 3.972656 0.234375 3.472656 0.15625 3.015625 0 C 2.566406 -0.164062 2.175781 -0.394531 1.84375 -0.6875 C 1.519531 -0.976562 1.265625 -1.328125 1.078125 -1.734375 C 0.898438 -2.140625 0.8125 -2.582031 0.8125 -3.0625 C 0.8125 -3.5625 0.910156 -4.019531 1.109375 -4.4375 C 1.316406 -4.851562 1.601562 -5.210938 1.96875 -5.515625 C 2.34375 -5.828125 2.78125 -6.066406 3.28125 -6.234375 C 3.78125 -6.398438 4.320312 -6.484375 4.90625 -6.484375 C 5.539062 -6.484375 6.101562 -6.414062 6.59375 -6.28125 C 7.09375 -6.15625 7.578125 -5.945312 8.046875 -5.65625 L 8.046875 -6.328125 C 8.046875 -7.273438 7.789062 -8.035156 7.28125 -8.609375 C 6.769531 -9.179688 6.09375 -9.46875 5.25 -9.46875 C 4.15625 -9.46875 3.265625 -8.992188 2.578125 -8.046875 L 1.46875 -8.96875 C 1.976562 -9.5625 2.5625 -10.015625 3.21875 -10.328125 C 3.875 -10.648438 4.570312 -10.8125 5.3125 -10.8125 C 5.925781 -10.8125 6.492188 -10.703125 7.015625 -10.484375 C 7.535156 -10.273438 7.984375 -9.976562 8.359375 -9.59375 C 8.734375 -9.207031 9.023438 -8.75 9.234375 -8.21875 C 9.441406 -7.6875 9.546875 -7.117188 9.546875 -6.515625 L 9.546875 0 L 8.046875 0 L 8.046875 -1.65625 C 7.609375 -1.007812 7.085938 -0.53125 6.484375 -0.21875 C 5.890625 0.0820312 5.234375 0.234375 4.515625 0.234375 Z M 4.78125 -1.109375 C 5.257812 -1.109375 5.695312 -1.179688 6.09375 -1.328125 C 6.488281 -1.484375 6.832031 -1.695312 7.125 -1.96875 C 7.414062 -2.238281 7.640625 -2.5625 7.796875 -2.9375 C 7.960938 -3.320312 8.046875 -3.742188 8.046875 -4.203125 C 7.546875 -4.554688 7.050781 -4.8125 6.5625 -4.96875 C 6.082031 -5.132812 5.515625 -5.21875 4.859375 -5.21875 C 4.078125 -5.21875 3.453125 -5.03125 2.984375 -4.65625 C 2.523438 -4.28125 2.296875 -3.769531 2.296875 -3.125 C 2.296875 -2.5 2.519531 -2.003906 2.96875 -1.640625 C 3.414062 -1.285156 4.019531 -1.109375 4.78125 -1.109375 Z M 4.78125 -1.109375 "/></g></g></g><g fill="#000000" fill-opacity="1"><g transform="translate(397.776299, 131.312898)"><g><path d="M 5.25 0.234375 C 4.375 0.234375 3.679688 -0.0351562 3.171875 -0.578125 C 2.671875 -1.128906 2.421875 -1.878906 2.421875 -2.828125 L 2.421875 -9.25 L 0.8125 -9.25 L 0.8125 -10.578125 L 2.421875 -10.578125 L 2.421875 -13.390625 L 3.90625 -13.390625 L 3.90625 -10.578125 L 7.0625 -10.578125 L 7.0625 -9.25 L 3.90625 -9.25 L 3.90625 -2.828125 C 3.90625 -2.273438 4.039062 -1.847656 4.3125 -1.546875 C 4.582031 -1.253906 4.960938 -1.109375 5.453125 -1.109375 C 6.078125 -1.109375 6.613281 -1.351562 7.0625 -1.84375 L 7.796875 -0.96875 C 7.472656 -0.582031 7.097656 -0.285156 6.671875 -0.078125 C 6.253906 0.128906 5.78125 0.234375 5.25 0.234375 Z M 5.25 0.234375 "/></g></g></g><g fill="#000000" fill-opacity="1"><g transform="translate(405.915566, 131.312898)"><g><path d="M 1.609375 -10.578125 L 3.109375 -10.578125 L 3.109375 0 L 1.609375 0 Z M 2.34375 -12.734375 C 2.039062 -12.734375 1.785156 -12.84375 1.578125 -13.0625 C 1.367188 -13.28125 1.265625 -13.539062 1.265625 -13.84375 C 1.265625 -14.15625 1.367188 -14.414062 1.578125 -14.625 C 1.796875 -14.84375 2.0625 -14.953125 2.375 -14.953125 C 2.675781 -14.953125 2.929688 -14.84375 3.140625 -14.625 C 3.347656 -14.414062 3.453125 -14.15625 3.453125 -13.84375 C 3.453125 -13.539062 3.34375 -13.28125 3.125 -13.0625 C 2.914062 -12.84375 2.65625 -12.734375 2.34375 -12.734375 Z M 2.34375 -12.734375 "/></g></g></g><g fill="#000000" fill-opacity="1"><g transform="translate(410.628975, 131.312898)"><g><path d="M 6.4375 0.234375 C 5.6875 0.234375 4.984375 0.0859375 4.328125 -0.203125 C 3.679688 -0.492188 3.113281 -0.890625 2.625 -1.390625 C 2.132812 -1.890625 1.742188 -2.472656 1.453125 -3.140625 C 1.171875 -3.804688 1.03125 -4.523438 1.03125 -5.296875 C 1.03125 -6.046875 1.171875 -6.753906 1.453125 -7.421875 C 1.742188 -8.097656 2.132812 -8.6875 2.625 -9.1875 C 3.113281 -9.6875 3.679688 -10.082031 4.328125 -10.375 C 4.984375 -10.664062 5.6875 -10.8125 6.4375 -10.8125 C 7.1875 -10.8125 7.882812 -10.664062 8.53125 -10.375 C 9.1875 -10.082031 9.757812 -9.6875 10.25 -9.1875 C 10.75 -8.6875 11.140625 -8.101562 11.421875 -7.4375 C 11.703125 -6.769531 11.84375 -6.054688 11.84375 -5.296875 C 11.84375 -4.523438 11.703125 -3.804688 11.421875 -3.140625 C 11.140625 -2.472656 10.75 -1.890625 10.25 -1.390625 C 9.757812 -0.890625 9.1875 -0.492188 8.53125 -0.203125 C 7.882812 0.0859375 7.1875 0.234375 6.4375 0.234375 Z M 6.4375 -1.171875 C 6.988281 -1.171875 7.5 -1.273438 7.96875 -1.484375 C 8.4375 -1.691406 8.84375 -1.976562 9.1875 -2.34375 C 9.53125 -2.707031 9.796875 -3.140625 9.984375 -3.640625 C 10.179688 -4.140625 10.28125 -4.691406 10.28125 -5.296875 C 10.28125 -5.890625 10.179688 -6.4375 9.984375 -6.9375 C 9.796875 -7.4375 9.53125 -7.867188 9.1875 -8.234375 C 8.84375 -8.597656 8.4375 -8.882812 7.96875 -9.09375 C 7.5 -9.300781 6.988281 -9.40625 6.4375 -9.40625 C 5.882812 -9.40625 5.375 -9.300781 4.90625 -9.09375 C 4.4375 -8.882812 4.03125 -8.597656 3.6875 -8.234375 C 3.34375 -7.867188 3.070312 -7.4375 2.875 -6.9375 C 2.6875 -6.4375 2.59375 -5.890625 2.59375 -5.296875 C 2.59375 -4.691406 2.6875 -4.140625 2.875 -3.640625 C 3.070312 -3.140625 3.34375 -2.707031 3.6875 -2.34375 C 4.03125 -1.976562 4.4375 -1.691406 4.90625 -1.484375 C 5.375 -1.273438 5.882812 -1.171875 6.4375 -1.171875 Z M 6.4375 -1.171875 "/></g></g></g><g fill="#000000" fill-opacity="1"><g transform="translate(423.504631, 131.312898)"><g><path d="M 1.609375 -10.578125 L 3.109375 -10.578125 L 3.109375 -8.953125 C 3.953125 -10.191406 5.046875 -10.8125 6.390625 -10.8125 C 6.960938 -10.8125 7.492188 -10.703125 7.984375 -10.484375 C 8.472656 -10.273438 8.890625 -9.976562 9.234375 -9.59375 C 9.578125 -9.207031 9.847656 -8.75 10.046875 -8.21875 C 10.242188 -7.6875 10.34375 -7.117188 10.34375 -6.515625 L 10.34375 0 L 8.859375 0 L 8.859375 -6.296875 C 8.859375 -7.265625 8.597656 -8.03125 8.078125 -8.59375 C 7.566406 -9.15625 6.875 -9.4375 6 -9.4375 C 5.125 -9.4375 4.421875 -9.144531 3.890625 -8.5625 C 3.367188 -7.988281 3.109375 -7.234375 3.109375 -6.296875 L 3.109375 0 L 1.609375 0 Z M 1.609375 -10.578125 "/></g></g></g><g fill="#000000" fill-opacity="1"><g transform="translate(435.345649, 131.312898)"><g><path d="M 5.265625 0.234375 C 4.347656 0.234375 3.507812 0.0390625 2.75 -0.34375 C 1.988281 -0.726562 1.34375 -1.3125 0.8125 -2.09375 L 1.90625 -3.03125 C 2.78125 -1.726562 3.914062 -1.078125 5.3125 -1.078125 C 6.050781 -1.078125 6.640625 -1.234375 7.078125 -1.546875 C 7.515625 -1.867188 7.734375 -2.296875 7.734375 -2.828125 C 7.734375 -3.273438 7.539062 -3.628906 7.15625 -3.890625 C 6.78125 -4.160156 6.160156 -4.410156 5.296875 -4.640625 C 3.972656 -4.984375 3.007812 -5.410156 2.40625 -5.921875 C 1.8125 -6.429688 1.515625 -7.078125 1.515625 -7.859375 C 1.515625 -8.753906 1.84375 -9.46875 2.5 -10 C 3.164062 -10.539062 4.039062 -10.8125 5.125 -10.8125 C 5.957031 -10.8125 6.710938 -10.644531 7.390625 -10.3125 C 8.078125 -9.988281 8.664062 -9.503906 9.15625 -8.859375 L 8.046875 -7.9375 C 7.316406 -8.976562 6.328125 -9.5 5.078125 -9.5 C 4.429688 -9.5 3.925781 -9.363281 3.5625 -9.09375 C 3.195312 -8.820312 3.015625 -8.453125 3.015625 -7.984375 C 3.015625 -7.535156 3.203125 -7.171875 3.578125 -6.890625 C 3.953125 -6.617188 4.582031 -6.375 5.46875 -6.15625 C 6.769531 -5.84375 7.71875 -5.425781 8.3125 -4.90625 C 8.914062 -4.394531 9.21875 -3.738281 9.21875 -2.9375 C 9.21875 -2.46875 9.117188 -2.035156 8.921875 -1.640625 C 8.734375 -1.253906 8.460938 -0.921875 8.109375 -0.640625 C 7.765625 -0.367188 7.347656 -0.15625 6.859375 0 C 6.378906 0.15625 5.847656 0.234375 5.265625 0.234375 Z M 5.265625 0.234375 "/></g></g></g></svg>