<?xml version="1.0" encoding="UTF-8"?>
<svg version="1.1" xmlns="http://www.w3.org/2000/svg" width="62" height="57">
<path d="M0 0 C20.46 0 40.92 0 62 0 C62 18.81 62 37.62 62 57 C41.54 57 21.08 57 0 57 C0 38.19 0 19.38 0 0 Z " fill="#FEFEFE" transform="translate(0,0)"/>
<path d="M0 0 C2.375 -0.125 2.375 -0.125 5 0 C5.66 0.66 6.32 1.32 7 2 C9.32275177 2.40047444 11.65739357 2.7397104 14 3 C14.38218767 4.65614657 14.71395102 6.32457024 15 8 C14.67 8.33 14.34 8.66 14 9 C13.85578846 10.40197402 13.77313876 11.81042831 13.71875 13.21875 C13.68136719 14.06824219 13.64398438 14.91773438 13.60546875 15.79296875 C13.57066406 16.68628906 13.53585938 17.57960938 13.5 18.5 C13.43140557 20.26059038 13.35871048 22.02102741 13.28125 23.78125 C13.23581055 24.9578418 13.23581055 24.9578418 13.18945312 26.15820312 C13 28 13 28 12 29 C9.00981839 29.12667764 6.05305892 29.18520838 3.0625 29.1875 C2.22525391 29.19974609 1.38800781 29.21199219 0.52539062 29.22460938 C-0.67633789 29.22750977 -0.67633789 29.22750977 -1.90234375 29.23046875 C-2.63960693 29.23457764 -3.37687012 29.23868652 -4.13647461 29.24291992 C-6 29 -6 29 -8 27 C-8.28342583 24.04009936 -8.46681188 21.15383157 -8.5625 18.1875 C-8.7446086 13.33256229 -9.01636087 8.7683078 -10 4 C-9 3 -9 3 -7.15234375 2.90234375 C-5.1015625 2.93489583 -3.05078125 2.96744792 -1 3 C-0.67 2.01 -0.34 1.02 0 0 Z " fill="#282828" transform="translate(30,11)"/>
<path d="M0 0 C0.99 0 1.98 0 3 0 C3 3.63 3 7.26 3 11 C3.66 11 4.32 11 5 11 C5 7.37 5 3.74 5 0 C5.99 0 6.98 0 8 0 C8 4.95 8 9.9 8 15 C8.66 15 9.32 15 10 15 C10 10.05 10 5.1 10 0 C10.99 0 11.98 0 13 0 C13 3.63 13 7.26 13 11 C13.66 11 14.32 11 15 11 C15 7.37 15 3.74 15 0 C15.66 0 16.32 0 17 0 C17 6.27 17 12.54 17 19 C13.0709375 19.0309375 13.0709375 19.0309375 9.0625 19.0625 C8.2362915 19.071604 7.41008301 19.08070801 6.55883789 19.09008789 C4.70566241 19.09723945 2.85250692 19.0502852 1 19 C0 18 0 18 -0.11352539 16.23413086 C-0.10828857 15.48526611 -0.10305176 14.73640137 -0.09765625 13.96484375 C-0.09443359 13.15595703 -0.09121094 12.34707031 -0.08789062 11.51367188 C-0.07951172 10.66353516 -0.07113281 9.81339844 -0.0625 8.9375 C-0.05798828 8.08349609 -0.05347656 7.22949219 -0.04882812 6.34960938 C-0.03700373 4.23304337 -0.01906769 2.11651315 0 0 Z " fill="#F0F0F0" transform="translate(24,20)"/>
<path d="M0 0 C7.92 0.33 15.84 0.66 24 1 C24 1.66 24 2.32 24 3 C22.02 3 20.04 3 18 3 C18 7.29 18 11.58 18 16 C17.67 16 17.34 16 17 16 C17 12.37 17 8.74 17 5 C16.01 5 15.02 5 14 5 C14 9.95 14 14.9 14 20 C13.34 20 12.68 20 12 20 C12 15.05 12 10.1 12 5 C11.01 5 10.02 5 9 5 C9 8.63 9 12.26 9 16 C8.34 16 7.68 16 7 16 C7 12.37 7 8.74 7 5 C6.01 5 5.02 5 4 5 C3.67 10.94 3.34 16.88 3 23 C2.67 23 2.34 23 2 23 C1.93941406 21.75863281 1.87882812 20.51726563 1.81640625 19.23828125 C1.73196377 17.59634423 1.64731764 15.95441768 1.5625 14.3125 C1.52318359 13.49587891 1.48386719 12.67925781 1.44335938 11.83789062 C1.40146484 11.04189453 1.35957031 10.24589844 1.31640625 9.42578125 C1.27974854 8.69786377 1.24309082 7.96994629 1.20532227 7.2199707 C0.98061224 4.79037706 0.47851613 2.39258065 0 0 Z " fill="#767676" transform="translate(20,15)"/>
<path d="M0 0 C1.2065625 0.0309375 1.2065625 0.0309375 2.4375 0.0625 C2.7675 0.7225 3.0975 1.3825 3.4375 2.0625 C3.1075 2.7225 2.7775 3.3825 2.4375 4.0625 C0.7875 4.0625 -0.8625 4.0625 -2.5625 4.0625 C-2.8925 3.0725 -3.2225 2.0825 -3.5625 1.0625 C-2.5625 0.0625 -2.5625 0.0625 0 0 Z " fill="#646464" transform="translate(32.5625,10.9375)"/>
</svg>
